<svg width="156" height="30" viewBox="0 0 156 30" fill="none" xmlns="http://www.w3.org/2000/svg">
<path d="M52.9316 18.8789C52.9316 19.3802 52.8665 19.8327 52.7363 20.2363C52.6126 20.6335 52.4466 20.985 52.2383 21.291C52.0299 21.597 51.7858 21.8574 51.5059 22.0723C51.2259 22.2871 50.9362 22.4629 50.6367 22.5996C50.3372 22.7363 50.0312 22.8372 49.7188 22.9023C49.4128 22.9674 49.123 23 48.8496 23H39.0547V20.4609H48.8496C49.3379 20.4609 49.7155 20.3177 49.9824 20.0312C50.2559 19.7448 50.3926 19.3607 50.3926 18.8789C50.3926 18.6445 50.3568 18.4297 50.2852 18.2344C50.2135 18.0391 50.1094 17.8698 49.9727 17.7266C49.8424 17.5833 49.6797 17.4727 49.4844 17.3945C49.2956 17.3164 49.084 17.2773 48.8496 17.2773H43.0098C42.5996 17.2773 42.1569 17.2057 41.6816 17.0625C41.2064 16.9128 40.7637 16.6751 40.3535 16.3496C39.9499 16.0241 39.6113 15.5977 39.3379 15.0703C39.071 14.543 38.9375 13.8984 38.9375 13.1367C38.9375 12.375 39.071 11.7337 39.3379 11.2129C39.6113 10.6855 39.9499 10.2591 40.3535 9.93359C40.7637 9.60156 41.2064 9.36393 41.6816 9.2207C42.1569 9.07096 42.5996 8.99609 43.0098 8.99609H51.6523V11.5352H43.0098C42.528 11.5352 42.1504 11.6816 41.877 11.9746C41.61 12.2676 41.4766 12.6549 41.4766 13.1367C41.4766 13.625 41.61 14.0124 41.877 14.2988C42.1504 14.5788 42.528 14.7188 43.0098 14.7188H48.8496H48.8691C49.1426 14.7253 49.4323 14.7643 49.7383 14.8359C50.0443 14.901 50.347 15.0052 50.6465 15.1484C50.9525 15.2917 51.2422 15.474 51.5156 15.6953C51.7891 15.9102 52.0299 16.1706 52.2383 16.4766C52.4531 16.7826 52.6224 17.1341 52.7461 17.5312C52.8698 17.9284 52.9316 18.3776 52.9316 18.8789ZM66.4961 23H63.957V15.998C63.957 15.666 63.8724 15.4154 63.7031 15.2461C63.5339 15.0703 63.2799 14.9824 62.9414 14.9824H58.3613V12.4434H62.9414C63.1823 12.4434 63.4362 12.4727 63.7031 12.5312C63.9701 12.5833 64.2337 12.668 64.4941 12.7852C64.7611 12.9023 65.015 13.0553 65.2559 13.2441C65.4967 13.4264 65.7083 13.651 65.8906 13.918C66.0729 14.1784 66.2194 14.4811 66.3301 14.8262C66.4408 15.1712 66.4961 15.5618 66.4961 15.998V23ZM57.3359 23H54.7969V7.98047H57.3359V23ZM80.3047 19.4355C80.3047 19.8717 80.2493 20.2656 80.1387 20.6172C80.028 20.9622 79.8815 21.2682 79.6992 21.5352C79.5169 21.7956 79.3053 22.0202 79.0645 22.209C78.8236 22.3913 78.5697 22.541 78.3027 22.6582C78.0423 22.7754 77.7754 22.8633 77.502 22.9219C77.235 22.974 76.9811 23 76.7402 23H72.1602C71.8086 23 71.4245 22.9382 71.0078 22.8145C70.5911 22.6908 70.2038 22.4889 69.8457 22.209C69.4941 21.9225 69.1979 21.5547 68.957 21.1055C68.7227 20.6497 68.6055 20.0931 68.6055 19.4355V15.998C68.6055 15.347 68.7227 14.7969 68.957 14.3477C69.1979 13.8919 69.4941 13.5241 69.8457 13.2441C70.2038 12.9577 70.5911 12.7526 71.0078 12.6289C71.4245 12.5052 71.8086 12.4434 72.1602 12.4434H76.7402C77.3913 12.4434 77.9447 12.5605 78.4004 12.7949C78.8561 13.0293 79.224 13.3255 79.5039 13.6836C79.7839 14.0352 79.9857 14.4193 80.1094 14.8359C80.2396 15.2526 80.3047 15.64 80.3047 15.998V19.4355ZM77.7656 16.0176C77.7656 15.666 77.6777 15.4056 77.502 15.2363C77.3262 15.0671 77.0723 14.9824 76.7402 14.9824H72.1797C71.8411 14.9824 71.584 15.0703 71.4082 15.2461C71.2324 15.4154 71.1445 15.666 71.1445 15.998V19.4355C71.1445 19.7676 71.2324 20.0215 71.4082 20.1973C71.584 20.373 71.8411 20.4609 72.1797 20.4609H76.7402C77.0853 20.4609 77.3424 20.373 77.5117 20.1973C77.681 20.0215 77.7656 19.7676 77.7656 19.4355V16.0176ZM94.1133 19.4355C94.1133 19.8717 94.0579 20.2656 93.9473 20.6172C93.8366 20.9622 93.6901 21.2682 93.5078 21.5352C93.3255 21.7956 93.1139 22.0202 92.873 22.209C92.6322 22.3913 92.3783 22.541 92.1113 22.6582C91.8509 22.7754 91.5872 22.8633 91.3203 22.9219C91.0534 22.974 90.7995 23 90.5586 23H85.9785V20.4609H90.5586C90.8971 20.4609 91.151 20.373 91.3203 20.1973C91.4896 20.0215 91.5742 19.7676 91.5742 19.4355V16.0176C91.5742 15.666 91.4863 15.4056 91.3105 15.2363C91.1413 15.0671 90.8906 14.9824 90.5586 14.9824H85.998C85.653 14.9824 85.3926 15.0703 85.2168 15.2461C85.041 15.4154 84.9531 15.666 84.9531 15.998V26.3008H82.4141V15.998C82.4141 15.5618 82.4694 15.1712 82.5801 14.8262C82.6908 14.4811 82.8372 14.1784 83.0195 13.918C83.2083 13.651 83.4232 13.4264 83.6641 13.2441C83.9049 13.0553 84.1556 12.9023 84.416 12.7852C84.6829 12.668 84.9499 12.5833 85.2168 12.5312C85.4902 12.4727 85.7441 12.4434 85.9785 12.4434H90.5586C90.9948 12.4434 91.3854 12.4987 91.7305 12.6094C92.0755 12.7201 92.3783 12.8665 92.6387 13.0488C92.9056 13.2311 93.1302 13.4427 93.3125 13.6836C93.5013 13.9245 93.6543 14.1784 93.7715 14.4453C93.8887 14.7057 93.9733 14.9694 94.0254 15.2363C94.084 15.5033 94.1133 15.7572 94.1133 15.998V19.4355ZM106.486 19.4355C106.486 19.8717 106.431 20.2656 106.32 20.6172C106.21 20.9622 106.063 21.2682 105.881 21.5352C105.699 21.7956 105.487 22.0202 105.246 22.209C105.005 22.3913 104.751 22.541 104.484 22.6582C104.224 22.7754 103.957 22.8633 103.684 22.9219C103.417 22.974 103.163 23 102.922 23H96.0469V20.4609H102.902C103.247 20.4609 103.508 20.373 103.684 20.1973C103.859 20.0215 103.947 19.7676 103.947 19.4355C103.915 18.7585 103.573 18.4199 102.922 18.4199H98.9863C98.4264 18.4199 97.9512 18.3223 97.5605 18.127C97.1699 17.9316 96.8509 17.6875 96.6035 17.3945C96.3626 17.1016 96.1868 16.7858 96.0762 16.4473C95.972 16.1087 95.9199 15.793 95.9199 15.5C95.9199 14.9336 96.0208 14.4583 96.2227 14.0742C96.4245 13.6836 96.6784 13.3678 96.9844 13.127C97.2904 12.8861 97.6224 12.7135 97.9805 12.6094C98.3385 12.4987 98.6738 12.4434 98.9863 12.4434H105.227V14.9824H99.0059C98.8757 14.9824 98.7715 14.9987 98.6934 15.0312C98.6217 15.0573 98.5664 15.0964 98.5273 15.1484C98.4948 15.194 98.4753 15.2461 98.4688 15.3047C98.4622 15.3568 98.459 15.4089 98.459 15.4609C98.4655 15.5651 98.485 15.6465 98.5176 15.7051C98.5501 15.7637 98.5892 15.806 98.6348 15.832C98.6868 15.8581 98.7422 15.8743 98.8008 15.8809C98.8659 15.8809 98.9277 15.8809 98.9863 15.8809H102.922C103.573 15.8809 104.126 15.998 104.582 16.2324C105.038 16.4668 105.406 16.763 105.686 17.1211C105.965 17.4727 106.167 17.8568 106.291 18.2734C106.421 18.6901 106.486 19.0775 106.486 19.4355ZM117.697 14.9824H113.264V23H110.695V14.9824H107.395V12.4434H110.695V8.99609H113.264V12.4434H117.697V14.9824ZM130.812 19.4355C130.812 19.8717 130.757 20.2656 130.646 20.6172C130.536 20.9622 130.389 21.2682 130.207 21.5352C130.025 21.7956 129.813 22.0202 129.572 22.209C129.331 22.3913 129.077 22.541 128.811 22.6582C128.55 22.7754 128.283 22.8633 128.01 22.9219C127.743 22.974 127.489 23 127.248 23H122.668C122.316 23 121.932 22.9382 121.516 22.8145C121.099 22.6908 120.712 22.4889 120.354 22.209C120.002 21.9225 119.706 21.5547 119.465 21.1055C119.23 20.6497 119.113 20.0931 119.113 19.4355V15.998C119.113 15.347 119.23 14.7969 119.465 14.3477C119.706 13.8919 120.002 13.5241 120.354 13.2441C120.712 12.9577 121.099 12.7526 121.516 12.6289C121.932 12.5052 122.316 12.4434 122.668 12.4434H127.248C127.899 12.4434 128.452 12.5605 128.908 12.7949C129.364 13.0293 129.732 13.3255 130.012 13.6836C130.292 14.0352 130.493 14.4193 130.617 14.8359C130.747 15.2526 130.812 15.64 130.812 15.998V19.4355ZM128.273 16.0176C128.273 15.666 128.186 15.4056 128.01 15.2363C127.834 15.0671 127.58 14.9824 127.248 14.9824H122.688C122.349 14.9824 122.092 15.0703 121.916 15.2461C121.74 15.4154 121.652 15.666 121.652 15.998V19.4355C121.652 19.7676 121.74 20.0215 121.916 20.1973C122.092 20.373 122.349 20.4609 122.688 20.4609H127.248C127.593 20.4609 127.85 20.373 128.02 20.1973C128.189 20.0215 128.273 19.7676 128.273 19.4355V16.0176ZM142.219 14.9824H136.506C136.161 14.9824 135.9 15.0703 135.725 15.2461C135.549 15.4154 135.461 15.666 135.461 15.998V23H132.922V15.998C132.922 15.5618 132.977 15.1712 133.088 14.8262C133.199 14.4811 133.345 14.1784 133.527 13.918C133.716 13.651 133.931 13.4264 134.172 13.2441C134.413 13.0553 134.663 12.9023 134.924 12.7852C135.191 12.668 135.458 12.5833 135.725 12.5312C135.998 12.4727 136.252 12.4434 136.486 12.4434H142.219V14.9824ZM155.217 15.9395C155.217 16.291 155.155 16.6719 155.031 17.082C154.908 17.4857 154.706 17.8633 154.426 18.2148C154.152 18.5599 153.791 18.8496 153.342 19.084C152.899 19.3184 152.359 19.4355 151.721 19.4355H147.141V17.0234H151.721C152.066 17.0234 152.333 16.9193 152.521 16.7109C152.71 16.4961 152.805 16.2324 152.805 15.9199C152.805 15.5879 152.697 15.3275 152.482 15.1387C152.274 14.9499 152.02 14.8555 151.721 14.8555H147.141C146.796 14.8555 146.529 14.9629 146.34 15.1777C146.151 15.3861 146.057 15.6465 146.057 15.959V19.5039C146.057 19.8424 146.161 20.1061 146.369 20.2949C146.584 20.4837 146.848 20.5781 147.16 20.5781H151.721V23H147.141C146.789 23 146.408 22.9382 145.998 22.8145C145.594 22.6908 145.217 22.4922 144.865 22.2188C144.52 21.9388 144.23 21.5775 143.996 21.1348C143.762 20.6855 143.645 20.1419 143.645 19.5039V15.9395C143.645 15.5879 143.706 15.2103 143.83 14.8066C143.954 14.3965 144.152 14.0189 144.426 13.6738C144.706 13.3223 145.067 13.0293 145.51 12.7949C145.959 12.5605 146.503 12.4434 147.141 12.4434H151.721C152.072 12.4434 152.45 12.5052 152.854 12.6289C153.264 12.7526 153.641 12.9544 153.986 13.2344C154.338 13.5078 154.631 13.8691 154.865 14.3184C155.1 14.7611 155.217 15.3014 155.217 15.9395Z" fill="white"/>
<circle cx="15" cy="15" r="15" fill="#0088B4"/>
<path d="M21.9316 18.8789C21.9316 19.3802 21.8665 19.8327 21.7363 20.2363C21.6126 20.6335 21.4466 20.985 21.2383 21.291C21.0299 21.597 20.7858 21.8574 20.5059 22.0723C20.2259 22.2871 19.9362 22.4629 19.6367 22.5996C19.3372 22.7363 19.0312 22.8372 18.7188 22.9023C18.4128 22.9674 18.123 23 17.8496 23H8.05469V20.4609H17.8496C18.3379 20.4609 18.7155 20.3177 18.9824 20.0312C19.2559 19.7448 19.3926 19.3607 19.3926 18.8789C19.3926 18.6445 19.3568 18.4297 19.2852 18.2344C19.2135 18.0391 19.1094 17.8698 18.9727 17.7266C18.8424 17.5833 18.6797 17.4727 18.4844 17.3945C18.2956 17.3164 18.084 17.2773 17.8496 17.2773H12.0098C11.5996 17.2773 11.1569 17.2057 10.6816 17.0625C10.2064 16.9128 9.76367 16.6751 9.35352 16.3496C8.94987 16.0241 8.61133 15.5977 8.33789 15.0703C8.07096 14.543 7.9375 13.8984 7.9375 13.1367C7.9375 12.375 8.07096 11.7337 8.33789 11.2129C8.61133 10.6855 8.94987 10.2591 9.35352 9.93359C9.76367 9.60156 10.2064 9.36393 10.6816 9.2207C11.1569 9.07096 11.5996 8.99609 12.0098 8.99609H20.6523V11.5352H12.0098C11.528 11.5352 11.1504 11.6816 10.877 11.9746C10.61 12.2676 10.4766 12.6549 10.4766 13.1367C10.4766 13.625 10.61 14.0124 10.877 14.2988C11.1504 14.5788 11.528 14.7188 12.0098 14.7188H17.8496H17.8691C18.1426 14.7253 18.4323 14.7643 18.7383 14.8359C19.0443 14.901 19.347 15.0052 19.6465 15.1484C19.9525 15.2917 20.2422 15.474 20.5156 15.6953C20.7891 15.9102 21.0299 16.1706 21.2383 16.4766C21.4531 16.7826 21.6224 17.1341 21.7461 17.5312C21.8698 17.9284 21.9316 18.3776 21.9316 18.8789Z" fill="white"/>
</svg>
